<svg width="12" height="12" viewBox="0 0 12 12" fill="none" xmlns="http://www.w3.org/2000/svg">
<path d="M11.4266 1.06833C11.3336 0.844346 11.1556 0.666352 10.9316 0.573333C10.8214 0.526362 10.7031 0.501448 10.5833 0.5H1.41661C1.1735 0.5 0.940338 0.596577 0.76843 0.768486C0.596521 0.940394 0.499944 1.17355 0.499944 1.41667C0.499944 1.65978 0.596521 1.89294 0.76843 2.06485C0.940338 2.23676 1.1735 2.33333 1.41661 2.33333H8.37411L0.765777 9.9325C0.67986 10.0177 0.611665 10.1191 0.565127 10.2308C0.518589 10.3425 0.494629 10.4623 0.494629 10.5833C0.494629 10.7043 0.518589 10.8242 0.565127 10.9359C0.611665 11.0476 0.67986 11.1489 0.765777 11.2342C0.850993 11.3201 0.952378 11.3883 1.06408 11.4348C1.17579 11.4814 1.2956 11.5053 1.41661 11.5053C1.53762 11.5053 1.65744 11.4814 1.76914 11.4348C1.88084 11.3883 1.98223 11.3201 2.06744 11.2342L9.66661 3.62583V10.5833C9.66661 10.8264 9.76319 11.0596 9.93509 11.2315C10.107 11.4034 10.3402 11.5 10.5833 11.5C10.8264 11.5 11.0596 11.4034 11.2315 11.2315C11.4034 11.0596 11.4999 10.8264 11.4999 10.5833V1.41667C11.4985 1.29688 11.4736 1.17854 11.4266 1.06833Z" fill="#121212"/>
</svg>
