<svg width="72" height="72" viewBox="0 0 72 72" fill="none" xmlns="http://www.w3.org/2000/svg">
<path d="M43.5 65.9739V55.5C43.5 52.6962 43.5 51.2943 42.897 50.25C42.5022 49.566 41.934 48.9978 41.25 48.603C40.2057 48 38.8038 48 36 48C33.1962 48 31.7943 48 30.75 48.603C30.066 48.9978 29.4978 49.566 29.1029 50.25C28.5 51.2943 28.5 52.6962 28.5 55.5V65.9739H43.5Z" fill="#002F49"/>
<path opacity="0.5" fill-rule="evenodd" clip-rule="evenodd" d="M17.1961 36C14.5238 36 12.1597 34.8717 10.5 33.0987V42C10.5 53.3136 10.5 58.9704 14.0147 62.4852C16.844 65.3145 21.0613 65.8662 28.5 65.9739H43.5C50.9388 65.8662 55.1559 65.3145 57.9852 62.4852C61.5 58.9704 61.5 53.3136 61.5 42V33.102C59.8404 34.8732 57.4776 36 54.807 36C50.0919 36 46.1442 32.4273 45.675 27.7357L45.456 25.552C46.0155 31.146 41.6226 36 36.0009 36C30.417 36 26.0457 31.2114 26.535 25.6653L26.3279 27.7357C25.8588 32.4273 21.911 36 17.1961 36ZM43.5 55.5V65.9739H28.5V55.5C28.5 52.6962 28.5 51.2943 29.1029 50.25C29.4978 49.566 30.066 48.9978 30.75 48.603C31.7943 48 33.1962 48 36 48C38.8038 48 40.2057 48 41.25 48.603C41.934 48.9978 42.5022 49.566 42.897 50.25C43.5 51.2943 43.5 52.6962 43.5 55.5Z" fill="#002F49"/>
<path d="M28.4994 6H43.4994L45.4545 25.5521C46.014 31.146 41.6211 36 35.9994 36C30.3777 36 25.9848 31.146 26.5442 25.5521L28.4994 6Z" fill="#002F49"/>
<path opacity="0.7" d="M9.99072 16.054C10.525 13.3828 10.7921 12.0472 11.3352 10.9645C12.4796 8.68317 14.5388 6.99504 17.0003 6.32025C18.1685 6 19.5305 6 22.2546 6H28.5015L26.3279 27.7358C25.8588 32.4273 21.911 36 17.1961 36C11.4048 36 7.06119 30.7017 8.19696 25.0228L9.99072 16.054Z" fill="#002F49"/>
<path opacity="0.7" d="M62.0109 16.054C61.4766 13.3828 61.2093 12.0472 60.6663 10.9645C59.5218 8.68317 57.4626 6.99504 55.0011 6.32025C53.8329 6 52.4709 6 49.7469 6H43.5L45.6735 27.7358C46.1427 32.4273 50.0904 36 54.8055 36C60.5967 36 64.9404 30.7017 63.8046 25.0228L62.0109 16.054Z" fill="#002F49"/>
</svg>
