<svg width="12" height="12" viewBox="0 0 12 12" fill="none" xmlns="http://www.w3.org/2000/svg">
<path d="M7.05745 5.99999L11.7825 1.28249C11.9237 1.14126 12.003 0.949713 12.003 0.749987C12.003 0.55026 11.9237 0.358714 11.7825 0.217487C11.6412 0.0762587 11.4497 -0.00308228 11.25 -0.00308228C11.0502 -0.00308228 10.8587 0.0762587 10.7175 0.217487L5.99995 4.94249L1.28245 0.217487C1.14123 0.0762587 0.94968 -0.0030821 0.749954 -0.0030821C0.550228 -0.0030821 0.358682 0.0762587 0.217454 0.217487C0.0762264 0.358714 -0.0031144 0.55026 -0.0031144 0.749987C-0.0031144 0.949713 0.0762264 1.14126 0.217454 1.28249L4.94245 5.99999L0.217454 10.7175C0.147158 10.7872 0.0913623 10.8702 0.0532858 10.9616C0.0152093 11.0529 -0.00439453 11.151 -0.00439453 11.25C-0.00439453 11.349 0.0152093 11.447 0.0532858 11.5384C0.0913623 11.6298 0.147158 11.7128 0.217454 11.7825C0.287176 11.8528 0.370127 11.9086 0.461522 11.9467C0.552916 11.9847 0.650945 12.0043 0.749954 12.0043C0.848963 12.0043 0.946992 11.9847 1.03839 11.9467C1.12978 11.9086 1.21273 11.8528 1.28245 11.7825L5.99995 7.05749L10.7175 11.7825C10.7872 11.8528 10.8701 11.9086 10.9615 11.9467C11.0529 11.9847 11.1509 12.0043 11.25 12.0043C11.349 12.0043 11.447 11.9847 11.5384 11.9467C11.6298 11.9086 11.7127 11.8528 11.7825 11.7825C11.8527 11.7128 11.9085 11.6298 11.9466 11.5384C11.9847 11.447 12.0043 11.349 12.0043 11.25C12.0043 11.151 11.9847 11.0529 11.9466 10.9616C11.9085 10.8702 11.8527 10.7872 11.7825 10.7175L7.05745 5.99999Z" fill="white"/>
</svg>
