<svg width="72" height="72" viewBox="0 0 72 72" fill="none" xmlns="http://www.w3.org/2000/svg">
<path fill-rule="evenodd" clip-rule="evenodd" d="M26.0172 22.626H45.9828C56.1072 22.626 61.1694 22.626 64.0131 25.5865C66.8565 28.547 66.1875 33.1209 64.8495 42.2685L63.5805 50.9433C62.5311 58.1169 62.0067 61.7037 59.3151 63.8517C56.6235 65.9997 52.6536 65.9997 44.7138 65.9997H27.2861C19.3464 65.9997 15.3766 65.9997 12.685 63.8517C9.99345 61.7037 9.46878 58.1169 8.41944 50.9433L7.15053 42.2685C5.81244 33.1209 5.14341 28.547 7.98696 25.5865C10.8305 22.626 15.8927 22.626 26.0172 22.626ZM24 54.0003C24 52.7577 25.1193 51.7503 26.5 51.7503H45.5001C46.8807 51.7503 48 52.7577 48 54.0003C48 55.2429 46.8807 56.2503 45.5001 56.2503H26.5C25.1193 56.2503 24 55.2429 24 54.0003Z" fill="#002F49"/>
<g opacity="0.4">
<path d="M25.5302 6.00002H46.4703C47.1678 5.99984 47.7027 5.99972 48.1701 6.04544C51.4935 6.37055 54.2136 8.36873 55.3674 11.0603H16.6333C17.7869 8.36873 20.5071 6.37055 23.8306 6.04544C24.298 5.99972 24.8327 5.99984 25.5302 6.00002Z" fill="#002F49"/>
</g>
<g opacity="0.7">
<path d="M18.9321 14.168C14.7602 14.168 11.3394 16.6872 10.1978 20.0293C10.174 20.099 10.1512 20.169 10.1294 20.2394C11.3238 19.8777 12.567 19.6414 13.8254 19.4801C17.0665 19.0645 21.1625 19.0647 25.9206 19.065H26.2759H46.5969C51.3549 19.0647 55.4511 19.0645 58.692 19.4801C59.9505 19.6414 61.1937 19.8777 62.388 20.2394C62.3661 20.169 62.3433 20.099 62.3196 20.0293C61.1781 16.6872 57.7572 14.168 53.5854 14.168H18.9321Z" fill="#002F49"/>
</g>
</svg>
