<svg width="60" height="60" viewBox="0 0 60 60" fill="none" xmlns="http://www.w3.org/2000/svg">
<path d="M50.6735 40.6625L52.4373 30.463C52.8778 27.9155 50.9188 25.5855 48.3363 25.5855H35.3835C34.0998 25.5855 33.1223 24.4332 33.33 23.165L34.9868 13.0536C35.256 11.4109 35.179 9.73 34.761 8.1188C34.4148 6.78411 33.385 5.71238 32.0308 5.27733L31.6683 5.16088C30.8498 4.89796 29.9565 4.95913 29.1848 5.33098C28.3355 5.74028 27.714 6.48683 27.4838 7.37473L26.2945 11.9594C25.916 13.4181 25.365 14.8261 24.6543 16.1566C23.6159 18.1004 22.0104 19.6562 20.3416 21.0942L16.7447 24.1937C15.7306 25.0678 15.198 26.3765 15.3134 27.711L17.3438 51.1928C17.53 53.3465 19.3308 55 21.4902 55H33.1118C41.815 55 49.2425 48.936 50.6735 40.6625Z" fill="#002F49"/>
<path opacity="0.5" fill-rule="evenodd" clip-rule="evenodd" d="M7.41917 23.7127C8.42232 23.6694 9.28152 24.4241 9.36802 25.4245L11.797 53.5158C11.953 55.3203 10.5317 56.8755 8.71677 56.8755C7.00723 56.8755 5.625 55.4885 5.625 53.7823V25.586C5.625 24.5819 6.416 23.756 7.41917 23.7127Z" fill="#002F49"/>
</svg>
