<svg width="60" height="60" viewBox="0 0 60 60" fill="none" xmlns="http://www.w3.org/2000/svg">
<path opacity="0.5" d="M49.2912 50.906C52.8575 48.9615 55 46.4683 55 43.75C55 40.8687 52.593 38.2403 48.6342 36.25C44.0565 33.9485 37.4042 32.5 30 32.5C22.5958 32.5 15.9434 33.9485 11.3658 36.25C7.40712 38.2403 5 40.8687 5 43.75C5 46.6313 7.40712 49.2598 11.3658 51.25C15.9434 53.5515 22.5958 55 30 55C37.7665 55 44.7057 53.4062 49.2912 50.906Z" fill="#002F49"/>
<path fill-rule="evenodd" clip-rule="evenodd" d="M12.5 21.2866C12.5 12.2917 20.335 5 30 5C39.665 5 47.5 12.2917 47.5 21.2866C47.5 30.211 41.9145 40.6247 33.2002 44.349C31.1687 45.217 28.8313 45.217 26.7998 44.349C18.0854 40.6247 12.5 30.211 12.5 21.2866ZM30 27.5C32.7615 27.5 35 25.2615 35 22.5C35 19.7386 32.7615 17.5 30 17.5C27.2385 17.5 25 19.7386 25 22.5C25 25.2615 27.2385 27.5 30 27.5Z" fill="#002F49"/>
</svg>
