<svg width="14" height="16" viewBox="0 0 14 16" fill="none" xmlns="http://www.w3.org/2000/svg">
<path d="M13.345 6.22273C13.2397 5.12692 12.8525 4.07704 12.2209 3.17534C11.5894 2.27365 10.7351 1.55085 9.74128 1.07735C8.74745 0.603848 7.64794 0.395772 6.54982 0.473384C5.45169 0.550996 4.39238 0.911652 3.47503 1.52023C2.68693 2.04722 2.02532 2.74221 1.53774 3.55527C1.05016 4.36834 0.748704 5.27931 0.655033 6.22273C0.563145 7.15997 0.681038 8.10592 1.00016 8.99194C1.31928 9.87796 1.83163 10.6818 2.50003 11.3452L6.47503 15.3277C6.54476 15.398 6.62771 15.4538 6.7191 15.4919C6.81049 15.53 6.90852 15.5496 7.00753 15.5496C7.10654 15.5496 7.20457 15.53 7.29597 15.4919C7.38736 15.4538 7.47031 15.398 7.54003 15.3277L11.5 11.3452C12.1684 10.6818 12.6808 9.87796 12.9999 8.99194C13.319 8.10592 13.4369 7.15997 13.345 6.22273ZM10.45 10.2877L7.00003 13.7377L3.55003 10.2877C3.0416 9.77927 2.65213 9.16448 2.40963 8.48755C2.16713 7.81062 2.07762 7.08838 2.14753 6.37273C2.2179 5.64606 2.44886 4.9441 2.82371 4.31761C3.19857 3.69113 3.70795 3.15576 4.31503 2.75023C5.11074 2.22166 6.04476 1.9397 7.00003 1.9397C7.9553 1.9397 8.88932 2.22166 9.68503 2.75023C10.2903 3.15419 10.7985 3.68719 11.1733 4.31094C11.5481 4.93468 11.78 5.63368 11.8525 6.35773C11.9247 7.0758 11.8363 7.80094 11.5938 8.48064C11.3512 9.16035 10.9605 9.77761 10.45 10.2877ZM7.00003 3.50023C6.33252 3.50023 5.68 3.69817 5.12498 4.06902C4.56997 4.43987 4.13739 4.96697 3.88194 5.58368C3.62649 6.20038 3.55966 6.87898 3.68988 7.53366C3.82011 8.18835 4.14155 8.78971 4.61355 9.26172C5.08555 9.73372 5.68692 10.0552 6.3416 10.1854C6.99629 10.3156 7.67489 10.2488 8.29159 9.99333C8.90829 9.73788 9.43539 9.3053 9.80624 8.75028C10.1771 8.19527 10.375 7.54274 10.375 6.87523C10.3731 5.98073 10.0168 5.12344 9.38433 4.49093C8.75182 3.85843 7.89453 3.50221 7.00003 3.50023ZM7.00003 8.75023C6.62919 8.75023 6.26668 8.64027 5.95834 8.43424C5.65 8.22821 5.40967 7.93537 5.26776 7.59276C5.12584 7.25015 5.08871 6.87315 5.16106 6.50944C5.23341 6.14572 5.41198 5.81163 5.67421 5.54941C5.93643 5.28718 6.27052 5.10861 6.63424 5.03626C6.99795 4.96391 7.37495 5.00104 7.71756 5.14296C8.06018 5.28487 8.35301 5.5252 8.55904 5.83354C8.76507 6.14188 8.87503 6.50439 8.87503 6.87523C8.87503 7.37251 8.67749 7.84943 8.32586 8.20106C7.97423 8.55269 7.49731 8.75023 7.00003 8.75023Z" fill="black"/>
</svg>
