<svg width="11" height="6" viewBox="0 0 11 6" fill="none" xmlns="http://www.w3.org/2000/svg">
<path d="M6.53259 0.344953L10.7701 4.58995C10.8404 4.65967 10.8962 4.74263 10.9343 4.83402C10.9723 4.92541 10.9919 5.02344 10.9919 5.12245C10.9919 5.22146 10.9723 5.31949 10.9343 5.41089C10.8962 5.50228 10.8404 5.58523 10.7701 5.65495C10.6296 5.79464 10.4395 5.87305 10.2413 5.87305C10.0432 5.87305 9.85312 5.79464 9.71259 5.65495L5.96259 1.94245L2.2501 5.65495C2.10957 5.79464 1.91949 5.87305 1.72135 5.87305C1.52321 5.87305 1.33312 5.79464 1.1926 5.65495C1.12173 5.58549 1.06535 5.50266 1.02673 5.41125C0.988107 5.31985 0.968008 5.22168 0.967596 5.12245C0.968008 5.02322 0.988107 4.92506 1.02673 4.83365C1.06535 4.74225 1.12173 4.65941 1.1926 4.58995L5.43009 0.344953C5.50033 0.268825 5.58557 0.208068 5.68044 0.166513C5.77531 0.124957 5.87777 0.103503 5.98134 0.103503C6.08492 0.103503 6.18737 0.124957 6.28225 0.166513C6.37712 0.208068 6.46236 0.268825 6.53259 0.344953Z" fill="#6D6D6D"/>
</svg>
