<svg width="6" height="11" viewBox="0 0 6 11" fill="none" xmlns="http://www.w3.org/2000/svg">
<path d="M5.65505 4.46765L1.41005 0.230149C1.34033 0.159853 1.25737 0.104058 1.16598 0.0659811C1.07459 0.0279046 0.976556 0.00830078 0.877547 0.00830078C0.778539 0.00830078 0.680509 0.0279046 0.589115 0.0659811C0.49772 0.104058 0.41477 0.159853 0.345047 0.230149C0.205359 0.370671 0.126953 0.56076 0.126953 0.758899C0.126953 0.957039 0.205359 1.14713 0.345047 1.28765L4.05755 5.03765L0.345047 8.75015C0.205359 8.89067 0.126953 9.08076 0.126953 9.2789C0.126953 9.47704 0.205359 9.66713 0.345047 9.80765C0.414508 9.87851 0.497342 9.93489 0.588749 9.97351C0.680155 10.0121 0.778317 10.0322 0.877547 10.0326C0.976778 10.0322 1.07494 10.0121 1.16635 9.97351C1.25775 9.93489 1.34059 9.87851 1.41005 9.80765L5.65505 5.57015C5.73118 5.49992 5.79193 5.41468 5.83349 5.3198C5.87504 5.22493 5.8965 5.12248 5.8965 5.0189C5.8965 4.91532 5.87504 4.81287 5.83349 4.71799C5.79193 4.62312 5.73118 4.53788 5.65505 4.46765Z" fill="#6D6D6D"/>
</svg>
