<svg width="6" height="11" viewBox="0 0 6 11" fill="none" xmlns="http://www.w3.org/2000/svg">
<path d="M0.344953 4.46765L4.58995 0.23015C4.65967 0.159853 4.74263 0.104058 4.83402 0.0659812C4.92541 0.0279047 5.02344 0.00830086 5.12245 0.00830085C5.22146 0.00830084 5.31949 0.0279047 5.41089 0.0659812C5.50228 0.104058 5.58523 0.159853 5.65495 0.23015C5.79464 0.370671 5.87305 0.56076 5.87305 0.758899C5.87305 0.957039 5.79464 1.14713 5.65495 1.28765L1.94245 5.03765L5.65495 8.75015C5.79464 8.89067 5.87305 9.08076 5.87305 9.2789C5.87305 9.47704 5.79464 9.66713 5.65495 9.80765C5.58549 9.87851 5.50266 9.93489 5.41125 9.97351C5.31985 10.0121 5.22168 10.0322 5.12245 10.0326C5.02322 10.0322 4.92506 10.0121 4.83365 9.97351C4.74225 9.93489 4.65941 9.87851 4.58995 9.80765L0.344954 5.57015C0.268825 5.49992 0.208068 5.41468 0.166513 5.3198C0.124958 5.22493 0.103504 5.12248 0.103504 5.0189C0.103504 4.91532 0.124958 4.81287 0.166513 4.71799C0.208068 4.62312 0.268825 4.53788 0.344953 4.46765Z" fill="#6D6D6D"/>
</svg>
