<svg width="11" height="6" viewBox="0 0 11 6" fill="none" xmlns="http://www.w3.org/2000/svg">
<path d="M6.53259 5.65505L10.7701 1.41005C10.8404 1.34033 10.8962 1.25737 10.9343 1.16598C10.9723 1.07459 10.9919 0.976556 10.9919 0.877547C10.9919 0.778539 10.9723 0.680509 10.9343 0.589115C10.8962 0.49772 10.8404 0.41477 10.7701 0.345047C10.6296 0.205359 10.4395 0.126953 10.2413 0.126953C10.0432 0.126953 9.85312 0.205359 9.71259 0.345047L5.96259 4.05755L2.2501 0.345047C2.10957 0.205359 1.91949 0.126953 1.72135 0.126953C1.52321 0.126953 1.33312 0.205359 1.1926 0.345047C1.12173 0.414508 1.06535 0.497342 1.02673 0.588748C0.988107 0.680155 0.968008 0.778317 0.967596 0.877547C0.968008 0.976777 0.988107 1.07494 1.02673 1.16635C1.06535 1.25775 1.12173 1.34059 1.1926 1.41005L5.43009 5.65505C5.50033 5.73118 5.58557 5.79193 5.68044 5.83349C5.77531 5.87504 5.87777 5.8965 5.98134 5.8965C6.08492 5.8965 6.18737 5.87504 6.28225 5.83349C6.37712 5.79193 6.46236 5.73118 6.53259 5.65505Z" fill="#6D6D6D"/>
</svg>
