<svg width="60" height="60" viewBox="0 0 60 60" fill="none" xmlns="http://www.w3.org/2000/svg">
<g opacity="0.5">
<path d="M18.0117 18.9058C18.7881 18.2206 18.8619 17.0357 18.1767 16.2593C17.4915 15.4829 16.3066 15.409 15.5302 16.0943C10.9919 20.0998 8.125 25.9663 8.125 32.5C8.125 33.5355 8.96448 34.375 10 34.375C11.0355 34.375 11.875 33.5355 11.875 32.5C11.875 27.0868 14.2457 22.2297 18.0117 18.9058Z" fill="#002F49"/>
<path d="M44.4697 16.0943C43.6935 15.409 42.5085 15.4829 41.8232 16.2593C41.138 17.0357 41.212 18.2206 41.9882 18.9058C45.7542 22.2297 48.125 27.0868 48.125 32.5C48.125 33.5355 48.9645 34.375 50 34.375C51.0355 34.375 51.875 33.5355 51.875 32.5C51.875 25.9663 49.008 20.0998 44.4697 16.0943Z" fill="#002F49"/>
<path d="M25.4672 50.0543C24.4645 49.7961 23.4423 50.3998 23.1841 51.4028C22.926 52.4056 23.5298 53.4278 24.5326 53.6858C26.2822 54.1361 28.1145 54.3751 30 54.3751C31.8855 54.3751 33.7177 54.1361 35.4672 53.6858C36.4702 53.4278 37.074 52.4056 36.8157 51.4028C36.5577 50.3998 35.5355 49.7961 34.5327 50.0543C33.086 50.4266 31.5675 50.6251 30 50.6251C28.4325 50.6251 26.914 50.4266 25.4672 50.0543Z" fill="#002F49"/>
</g>
<path d="M22.5 15C22.5 19.1421 25.8577 22.5 30 22.5C34.1423 22.5 37.5 19.1421 37.5 15C37.5 10.8579 34.1423 7.5 30 7.5C25.8577 7.5 22.5 10.8579 22.5 15Z" fill="#002F49"/>
<path d="M6.25 45C6.25 49.1423 9.60788 52.5 13.75 52.5C17.8921 52.5 21.25 49.1423 21.25 45C21.25 40.8577 17.8921 37.5 13.75 37.5C9.60788 37.5 6.25 40.8577 6.25 45Z" fill="#002F49"/>
<path d="M46.25 52.5C42.1077 52.5 38.75 49.1423 38.75 45C38.75 40.8577 42.1077 37.5 46.25 37.5C50.3923 37.5 53.75 40.8577 53.75 45C53.75 49.1423 50.3923 52.5 46.25 52.5Z" fill="#002F49"/>
</svg>
