<svg width="60" height="60" viewBox="0 0 60 60" fill="none" xmlns="http://www.w3.org/2000/svg">
<path opacity="0.5" d="M7.5 26.0417C7.5 18.0477 7.5 14.0507 8.4438 12.706C9.38758 11.3613 13.1458 10.0749 20.6623 7.50198L22.0943 7.0118C26.0125 5.6706 27.9715 5 30 5C32.0285 5 33.9875 5.6706 37.9058 7.0118L39.3377 7.50198C46.8542 10.0749 50.6125 11.3613 51.5562 12.706C52.5 14.0507 52.5 18.0477 52.5 26.0417C52.5 27.249 52.5 28.5585 52.5 29.9785C52.5 44.0735 41.9025 50.9137 35.2535 53.8182C33.45 54.606 32.5483 55 30 55C27.4517 55 26.55 54.606 24.7464 53.8182C18.0974 50.9137 7.5 44.0735 7.5 29.9785C7.5 28.5585 7.5 27.249 7.5 26.0417Z" fill="#002F49"/>
<path fill-rule="evenodd" clip-rule="evenodd" d="M27.375 21.0007C28.9308 19.8341 31.0695 19.8341 32.625 21.0007L41.125 27.3757C41.9535 27.997 42.1215 29.1722 41.5 30.0007C40.8788 30.8292 39.7035 30.997 38.875 30.3757L30.375 24.0007C30.153 23.8341 29.8473 23.8341 29.625 24.0007L21.1251 30.3757C20.2967 30.997 19.1214 30.8292 18.5001 30.0007C17.8788 29.1722 18.0467 27.997 18.8751 27.3757L27.375 21.0007ZM28.875 29.8757C29.5418 29.3757 30.4585 29.3757 31.125 29.8757L36.125 33.6257C36.9535 34.247 37.1215 35.4222 36.5 36.2507C35.8788 37.0792 34.7035 37.247 33.875 36.6257L30 33.7195L26.125 36.6257C25.2968 37.247 24.1214 37.0792 23.5001 36.2507C22.8788 35.4222 23.0467 34.247 23.8751 33.6257L28.875 29.8757Z" fill="#002F49"/>
</svg>
