<svg width="60" height="60" viewBox="0 0 60 60" fill="none" xmlns="http://www.w3.org/2000/svg">
<path d="M8.23223 23.2322C7.5 23.9645 7.5 25.143 7.5 27.5V42.5C7.5 44.857 7.5 46.0355 8.23223 46.7677C8.96448 47.5 10.143 47.5 12.5 47.5C14.857 47.5 16.0355 47.5 16.7678 46.7677C17.5 46.0355 17.5 44.857 17.5 42.5V27.5C17.5 25.143 17.5 23.9645 16.7678 23.2322C16.0355 22.5 14.857 22.5 12.5 22.5C10.143 22.5 8.96448 22.5 8.23223 23.2322Z" fill="#002F49"/>
<path opacity="0.4" d="M43.2323 5.73223C42.5 6.46448 42.5 7.64297 42.5 10V42.5C42.5 44.857 42.5 46.0355 43.2323 46.7677C43.9645 47.5 45.143 47.5 47.5 47.5C49.857 47.5 51.0355 47.5 51.7677 46.7677C52.5 46.0355 52.5 44.857 52.5 42.5V10C52.5 7.64297 52.5 6.46448 51.7677 5.73223C51.0355 5 49.857 5 47.5 5C45.143 5 43.9645 5 43.2323 5.73223Z" fill="#002F49"/>
<path opacity="0.7" d="M25 17.5C25 15.143 25 13.9645 25.7323 13.2322C26.4645 12.5 27.643 12.5 30 12.5C32.357 12.5 33.5355 12.5 34.2677 13.2322C35 13.9645 35 15.143 35 17.5V42.5C35 44.857 35 46.0355 34.2677 46.7677C33.5355 47.5 32.357 47.5 30 47.5C27.643 47.5 26.4645 47.5 25.7323 46.7677C25 46.0355 25 44.857 25 42.5V17.5Z" fill="#002F49"/>
<path d="M7.5 53.125C6.46448 53.125 5.625 53.9645 5.625 55C5.625 56.0355 6.46448 56.875 7.5 56.875H52.5C53.5355 56.875 54.375 56.0355 54.375 55C54.375 53.9645 53.5355 53.125 52.5 53.125H7.5Z" fill="#002F49"/>
</svg>
