<svg width="72" height="72" viewBox="0 0 72 72" fill="none" xmlns="http://www.w3.org/2000/svg">
<path opacity="0.5" d="M42 12H30C18.6863 12 13.0294 12 9.51471 15.5147C6 19.0294 6 24.6863 6 36C6 47.3136 6 52.9707 9.51471 56.4852C13.0294 60 18.6863 60 30 60H42C53.3136 60 58.9707 60 62.4852 56.4852C66 52.9707 66 47.3136 66 36C66 24.6863 66 19.0294 62.4852 15.5147C58.9707 12 53.3136 12 42 12Z" fill="#002F49"/>
<path d="M39.75 27C39.75 25.7574 40.7574 24.75 42 24.75H57C58.2426 24.75 59.25 25.7574 59.25 27C59.25 28.2426 58.2426 29.25 57 29.25H42C40.7574 29.25 39.75 28.2426 39.75 27Z" fill="#002F49"/>
<path d="M42.75 36C42.75 34.7574 43.7574 33.75 45 33.75H57C58.2426 33.75 59.25 34.7574 59.25 36C59.25 37.2426 58.2426 38.25 57 38.25H45C43.7574 38.25 42.75 37.2426 42.75 36Z" fill="#002F49"/>
<path d="M45.75 45C45.75 43.7574 46.7574 42.75 48 42.75H57C58.2426 42.75 59.25 43.7574 59.25 45C59.25 46.2426 58.2426 47.25 57 47.25H48C46.7574 47.25 45.75 46.2426 45.75 45Z" fill="#002F49"/>
<path d="M27 33C30.3138 33 33 30.3138 33 27C33 23.6863 30.3138 21 27 21C23.6863 21 21 23.6863 21 27C21 30.3138 23.6863 33 27 33Z" fill="#002F49"/>
<path d="M27 51C39 51 39 48.3138 39 45C39 41.6862 33.6273 39 27 39C20.3726 39 15 41.6862 15 45C15 48.3138 15 51 27 51Z" fill="#002F49"/>
</svg>
